<mxfile host="app.diagrams.net" modified="2023-05-19T02:09:39.026Z" agent="Mozilla/5.0 (X11; Linux x86_64) AppleWebKit/537.36 (KHTML, like Gecko) Chrome/113.0.0.0 Safari/537.36" etag="MJvUHu5GEfbEygpZSPMN" version="21.3.2" type="github">
  <diagram name="第 1 页" id="xx_ICXSG2NaE5fbNV9Lb">
    <mxGraphModel dx="600" dy="326" grid="1" gridSize="10" guides="1" tooltips="1" connect="1" arrows="1" fold="1" page="1" pageScale="1" pageWidth="1169" pageHeight="827" math="0" shadow="0">
      <root>
        <mxCell id="0" />
        <mxCell id="1" parent="0" />
        <mxCell id="UPNSN5LG6Qy9II8emMVJ-1" value="页数" style="rounded=0;whiteSpace=wrap;html=1;" vertex="1" parent="1">
          <mxGeometry x="40" y="90" width="80" height="60" as="geometry" />
        </mxCell>
        <mxCell id="UPNSN5LG6Qy9II8emMVJ-5" value="起始页面项在&lt;br&gt;文件中的偏移" style="rounded=0;whiteSpace=wrap;html=1;" vertex="1" parent="1">
          <mxGeometry x="120" y="90" width="80" height="60" as="geometry" />
        </mxCell>
        <mxCell id="UPNSN5LG6Qy9II8emMVJ-6" value="采用的压缩算法" style="rounded=0;whiteSpace=wrap;html=1;" vertex="1" parent="1">
          <mxGeometry x="200" y="90" width="80" height="60" as="geometry" />
        </mxCell>
        <mxCell id="UPNSN5LG6Qy9II8emMVJ-7" value="数据页1" style="rounded=0;whiteSpace=wrap;html=1;" vertex="1" parent="1">
          <mxGeometry x="280" y="90" width="170" height="60" as="geometry" />
        </mxCell>
        <mxCell id="UPNSN5LG6Qy9II8emMVJ-9" value="" style="endArrow=none;html=1;rounded=0;" edge="1" parent="1">
          <mxGeometry width="50" height="50" relative="1" as="geometry">
            <mxPoint x="40" y="170" as="sourcePoint" />
            <mxPoint x="40" y="150" as="targetPoint" />
          </mxGeometry>
        </mxCell>
        <mxCell id="UPNSN5LG6Qy9II8emMVJ-10" value="" style="endArrow=none;html=1;rounded=0;" edge="1" parent="1">
          <mxGeometry width="50" height="50" relative="1" as="geometry">
            <mxPoint x="120" y="170" as="sourcePoint" />
            <mxPoint x="120" y="150" as="targetPoint" />
          </mxGeometry>
        </mxCell>
        <mxCell id="UPNSN5LG6Qy9II8emMVJ-11" value="4字节" style="endArrow=classic;startArrow=classic;html=1;rounded=0;" edge="1" parent="1">
          <mxGeometry width="50" height="50" relative="1" as="geometry">
            <mxPoint x="40" y="160" as="sourcePoint" />
            <mxPoint x="120" y="160" as="targetPoint" />
          </mxGeometry>
        </mxCell>
        <mxCell id="UPNSN5LG6Qy9II8emMVJ-14" value="" style="endArrow=none;html=1;rounded=0;" edge="1" parent="1">
          <mxGeometry width="50" height="50" relative="1" as="geometry">
            <mxPoint x="280" y="170" as="sourcePoint" />
            <mxPoint x="280" y="150" as="targetPoint" />
          </mxGeometry>
        </mxCell>
        <mxCell id="UPNSN5LG6Qy9II8emMVJ-15" value="" style="endArrow=none;html=1;rounded=0;" edge="1" parent="1">
          <mxGeometry width="50" height="50" relative="1" as="geometry">
            <mxPoint x="620" y="170" as="sourcePoint" />
            <mxPoint x="620" y="150" as="targetPoint" />
          </mxGeometry>
        </mxCell>
        <mxCell id="UPNSN5LG6Qy9II8emMVJ-16" value="4096字节" style="endArrow=classic;startArrow=classic;html=1;rounded=0;" edge="1" parent="1">
          <mxGeometry width="50" height="50" relative="1" as="geometry">
            <mxPoint x="280" y="160" as="sourcePoint" />
            <mxPoint x="450" y="160" as="targetPoint" />
            <Array as="points">
              <mxPoint x="360" y="160" />
            </Array>
          </mxGeometry>
        </mxCell>
        <mxCell id="UPNSN5LG6Qy9II8emMVJ-17" value="..." style="rounded=0;whiteSpace=wrap;html=1;" vertex="1" parent="1">
          <mxGeometry x="450" y="90" width="170" height="60" as="geometry" />
        </mxCell>
        <mxCell id="UPNSN5LG6Qy9II8emMVJ-18" value="" style="endArrow=none;html=1;rounded=0;" edge="1" parent="1">
          <mxGeometry width="50" height="50" relative="1" as="geometry">
            <mxPoint x="620" y="170" as="sourcePoint" />
            <mxPoint x="620" y="150" as="targetPoint" />
          </mxGeometry>
        </mxCell>
        <mxCell id="UPNSN5LG6Qy9II8emMVJ-19" value="" style="endArrow=none;html=1;rounded=0;" edge="1" parent="1">
          <mxGeometry width="50" height="50" relative="1" as="geometry">
            <mxPoint x="790" y="170" as="sourcePoint" />
            <mxPoint x="790" y="150" as="targetPoint" />
          </mxGeometry>
        </mxCell>
        <mxCell id="UPNSN5LG6Qy9II8emMVJ-20" value="4096字节" style="endArrow=classic;startArrow=classic;html=1;rounded=0;" edge="1" parent="1">
          <mxGeometry width="50" height="50" relative="1" as="geometry">
            <mxPoint x="620" y="160" as="sourcePoint" />
            <mxPoint x="790" y="160" as="targetPoint" />
            <Array as="points">
              <mxPoint x="700" y="160" />
            </Array>
          </mxGeometry>
        </mxCell>
        <mxCell id="UPNSN5LG6Qy9II8emMVJ-24" value="" style="endArrow=none;html=1;rounded=0;" edge="1" parent="1">
          <mxGeometry width="50" height="50" relative="1" as="geometry">
            <mxPoint x="119.81" y="170" as="sourcePoint" />
            <mxPoint x="119.81" y="150" as="targetPoint" />
          </mxGeometry>
        </mxCell>
        <mxCell id="UPNSN5LG6Qy9II8emMVJ-25" value="" style="endArrow=none;html=1;rounded=0;" edge="1" parent="1">
          <mxGeometry width="50" height="50" relative="1" as="geometry">
            <mxPoint x="199.81" y="170" as="sourcePoint" />
            <mxPoint x="199.81" y="150" as="targetPoint" />
          </mxGeometry>
        </mxCell>
        <mxCell id="UPNSN5LG6Qy9II8emMVJ-26" value="4字节" style="endArrow=classic;startArrow=classic;html=1;rounded=0;" edge="1" parent="1">
          <mxGeometry width="50" height="50" relative="1" as="geometry">
            <mxPoint x="119.81" y="160" as="sourcePoint" />
            <mxPoint x="199.81" y="160" as="targetPoint" />
          </mxGeometry>
        </mxCell>
        <mxCell id="UPNSN5LG6Qy9II8emMVJ-27" value="" style="endArrow=none;html=1;rounded=0;" edge="1" parent="1">
          <mxGeometry width="50" height="50" relative="1" as="geometry">
            <mxPoint x="199.81" y="170" as="sourcePoint" />
            <mxPoint x="199.81" y="150" as="targetPoint" />
          </mxGeometry>
        </mxCell>
        <mxCell id="UPNSN5LG6Qy9II8emMVJ-28" value="" style="endArrow=none;html=1;rounded=0;" edge="1" parent="1">
          <mxGeometry width="50" height="50" relative="1" as="geometry">
            <mxPoint x="279.81" y="170" as="sourcePoint" />
            <mxPoint x="279.81" y="150" as="targetPoint" />
          </mxGeometry>
        </mxCell>
        <mxCell id="UPNSN5LG6Qy9II8emMVJ-29" value="4字节" style="endArrow=classic;startArrow=classic;html=1;rounded=0;" edge="1" parent="1">
          <mxGeometry width="50" height="50" relative="1" as="geometry">
            <mxPoint x="199.81" y="160" as="sourcePoint" />
            <mxPoint x="279.81" y="160" as="targetPoint" />
          </mxGeometry>
        </mxCell>
        <mxCell id="UPNSN5LG6Qy9II8emMVJ-30" value="数据页n" style="rounded=0;whiteSpace=wrap;html=1;" vertex="1" parent="1">
          <mxGeometry x="620" y="90" width="170" height="60" as="geometry" />
        </mxCell>
        <mxCell id="UPNSN5LG6Qy9II8emMVJ-32" value="" style="endArrow=none;html=1;rounded=0;" edge="1" parent="1">
          <mxGeometry width="50" height="50" relative="1" as="geometry">
            <mxPoint x="449.72" y="170" as="sourcePoint" />
            <mxPoint x="449.72" y="150" as="targetPoint" />
          </mxGeometry>
        </mxCell>
      </root>
    </mxGraphModel>
  </diagram>
</mxfile>
